<?xml version="1.0" encoding="UTF-8" standalone="no"?>
<!-- Created with Inkscape (http://www.inkscape.org/) -->
<svg
   xmlns:dc="http://purl.org/dc/elements/1.1/"
   xmlns:cc="http://web.resource.org/cc/"
   xmlns:rdf="http://www.w3.org/1999/02/22-rdf-syntax-ns#"
   xmlns:svg="http://www.w3.org/2000/svg"
   xmlns="http://www.w3.org/2000/svg"
   xmlns:xlink="http://www.w3.org/1999/xlink"
   xmlns:sodipodi="http://sodipodi.sourceforge.net/DTD/sodipodi-0.dtd"
   xmlns:inkscape="http://www.inkscape.org/namespaces/inkscape"
   width="32"
   height="32"
   id="svg2"
   sodipodi:version="0.32"
   inkscape:version="0.45+devel"
   version="1.0"
   sodipodi:docbase="/home/tobias/gotit/WWW/Themes/Dunkel/Graphics"
   sodipodi:docname="gekko.svg"
   inkscape:output_extension="org.inkscape.output.svg.inkscape"
   inkscape:export-filename="/home/tobias/gotit/WWW/Themes/Dunkel/Graphics/gekko_normal.png"
   inkscape:export-xdpi="90"
   inkscape:export-ydpi="90">
  <defs
     id="defs4">
    <linearGradient
       id="linearGradient5318">
      <stop
         style="stop-color:#f4f491;stop-opacity:1;"
         offset="0"
         id="stop5320" />
      <stop
         id="stop5330"
         offset="0.5"
         style="stop-color:#e0e053;stop-opacity:1;" />
      <stop
         style="stop-color:#cdcd15;stop-opacity:1;"
         offset="1"
         id="stop5322" />
    </linearGradient>
    <radialGradient
       inkscape:collect="always"
       xlink:href="#linearGradient5318"
       id="radialGradient5328"
       cx="24.945452"
       cy="16.368341"
       fx="24.945452"
       fy="16.368341"
       r="15.846402"
       gradientTransform="matrix(0.7151486,0,0,0.7220805,0.6063259,7.5347493)"
       gradientUnits="userSpaceOnUse" />
    <linearGradient
       inkscape:collect="always"
       id="linearGradient3340">
      <stop
         style="stop-color:#ffffff;stop-opacity:1;"
         offset="0"
         id="stop3342" />
      <stop
         style="stop-color:#ffffff;stop-opacity:0;"
         offset="1"
         id="stop3344" />
    </linearGradient>
    <linearGradient
       id="linearGradient4114"
       inkscape:collect="always">
      <stop
         id="stop4116"
         offset="0"
         style="stop-color:#000000;stop-opacity:1;" />
      <stop
         id="stop4118"
         offset="1"
         style="stop-color:#000000;stop-opacity:0;" />
    </linearGradient>
    <radialGradient
       inkscape:collect="always"
       xlink:href="#linearGradient3340"
       id="radialGradient5514"
       gradientUnits="userSpaceOnUse"
       gradientTransform="matrix(5.059294,0,0,2.8772366,-103.01469,1.2048956)"
       cx="21.929186"
       cy="-3.2182934"
       fx="21.929186"
       fy="-3.2182934"
       r="13" />
    <radialGradient
       inkscape:collect="always"
       xlink:href="#linearGradient4114"
       id="radialGradient5518"
       gradientUnits="userSpaceOnUse"
       gradientTransform="scale(1.64399,0.608276)"
       cx="15.115514"
       cy="63.965389"
       fx="15.115514"
       fy="63.965389"
       r="12.289036" />
    <mask
       maskUnits="userSpaceOnUse"
       id="mask5524">
      <path
         sodipodi:type="inkscape:offset"
         inkscape:radius="-0.4906902"
         inkscape:original="M 19.15625 0.5 C 18.173701 0.50367746 17.17798 0.64227865 16.1875 0.90625 C 4.6407295 2.7421427 -4.5914304 18.452763 4.0625 28.09375 C 14.310902 37.402521 31.076122 26.084033 31.21875 13.6875 C 32.248344 6.4744558 26.034096 0.47425777 19.15625 0.5 z "
         style="fill:#ffffff;fill-opacity:1;stroke:none;stroke-width:0.9997496;stroke-linejoin:round;stroke-miterlimit:4;stroke-dasharray:none;stroke-opacity:1"
         id="path5526"
         d="M 19.15625,1 C 18.218605,1.0035094 17.265207,1.1210953 16.3125,1.375 C 16.292436,1.3868886 16.271549,1.3973317 16.25,1.40625 C 10.670952,2.2932975 5.6040445,6.5507506 3,11.78125 C 0.40578212,16.992012 0.2739478,23.068268 4.40625,27.71875 C 9.358608,32.217048 15.829505,31.731919 21.1875,28.59375 C 26.545495,25.455581 30.649961,19.666323 30.71875,13.6875 C 30.717422,13.666688 30.717422,13.645812 30.71875,13.625 C 31.703935,6.7230712 25.747612,0.97533002 19.15625,1 z " />
    </mask>
  </defs>
  <sodipodi:namedview
     id="base"
     pagecolor="#ffffff"
     bordercolor="#666666"
     borderopacity="1.0"
     gridtolerance="10000"
     guidetolerance="10"
     objecttolerance="10"
     inkscape:pageopacity="0.0"
     inkscape:pageshadow="2"
     inkscape:zoom="11.313708"
     inkscape:cx="11.103234"
     inkscape:cy="15.197652"
     inkscape:document-units="px"
     inkscape:current-layer="layer1"
     width="32px"
     height="32px"
     inkscape:window-width="875"
     inkscape:window-height="740"
     inkscape:window-x="336"
     inkscape:window-y="101">
    <inkscape:grid
       type="xygrid"
       id="grid5075" />
  </sodipodi:namedview>
  <metadata
     id="metadata7">
    <rdf:RDF>
      <cc:Work
         rdf:about="">
        <dc:format>image/svg+xml</dc:format>
        <dc:type
           rdf:resource="http://purl.org/dc/dcmitype/StillImage" />
      </cc:Work>
    </rdf:RDF>
  </metadata>
  <g
     inkscape:label="Layer 1"
     inkscape:groupmode="layer"
     id="layer1">
    <g
       id="g5546">
      <path
         transform="matrix(0.647416,0,0,0.8048961,0.170104,-5.4716598)"
         d="M 45.052803 38.908627 A 20.203051 7.4751287 0 1 1  4.6467018,38.908627 A 20.203051 7.4751287 0 1 1  45.052803 38.908627 z"
         sodipodi:ry="7.4751287"
         sodipodi:rx="20.203051"
         sodipodi:cy="38.908627"
         sodipodi:cx="24.849752"
         id="path2229"
         style="fill:url(#radialGradient5518);fill-opacity:1;stroke:none;stroke-opacity:1"
         sodipodi:type="arc" />
      <path
         id="path2202"
         d="M 16.199306,0.89840282 C 4.652536,2.7342955 -4.6033938,18.437189 4.0505366,28.078176 C 14.298939,37.386947 31.087681,26.094532 31.230309,13.697999 C 32.406987,5.4545199 24.123148,-1.213368 16.199306,0.89840282 z "
         style="fill:url(#radialGradient5328);fill-opacity:1.0;stroke:#94940c;stroke-width:0.9997496;stroke-linejoin:round;stroke-miterlimit:4;stroke-dasharray:none;stroke-opacity:1" />
      <path
         d="M 18.1875,4.5 C 17.148911,4.3328335 16.046975,4.7238155 15.1875,5.53125 C 14.495705,6.1811576 14.026463,7.10625 14.09375,8.09375 C 14.161037,9.08125 14.611698,10.037742 15.3125,11.3125 C 15.604291,11.843268 15.662481,12.012138 15.78125,12.28125 C 15.555336,11.972764 15.401042,11.856934 15,11.09375 C 14.027151,9.2424165 13.339,8.2139149 12.1875,7.8125 C 10.527916,7.2339657 8.7105289,8.0250497 7.8125,9.625 C 7.2537333,10.620511 7.2618085,11.887793 7.90625,12.8125 C 8.5506915,13.737207 9.6141645,14.39581 11.0625,15 C 11.609253,15.228084 11.697124,15.326313 12.03125,15.5 C 11.74254,15.407189 11.584603,15.41601 11.21875,15.25 C 10.075011,14.731015 9.0133921,14.426217 8.03125,14.4375 C 7.0491079,14.448783 6.0955328,14.850625 5.53125,15.65625 C 4.524962,17.092927 4.6475598,19.007964 5.84375,20.28125 C 6.3927071,20.865589 7.1611315,21.356766 8.0625,21.375 C 8.9638685,21.393234 9.9142498,21.123894 11.40625,20.65625 C 11.641416,20.582541 11.624083,20.617241 11.8125,20.5625 C 10.150791,20.800949 8.8600851,21.589361 8.28125,22.8125 C 7.7024149,24.035639 8.0452081,25.576457 9.15625,26.6875 C 9.9302408,27.46149 10.9194,27.957778 11.9375,27.8125 C 12.9556,27.667222 13.793898,26.988293 14.625,26.0625 C 15.818,24.733576 17.195004,24.257751 18.40625,24.5 C 20.289456,24.876643 22.340971,24.007493 23.78125,22.5 C 24.285199,21.972533 24.718766,21.465865 24.90625,20.75 C 25.093734,20.034135 25.069313,19.302766 25.03125,18.03125 C 24.98932,16.630596 25.069853,15.776342 25.28125,15.15625 C 25.492647,14.536158 25.839304,14.075648 26.5625,13.40625 C 27.281916,12.74035 27.741872,11.882311 27.75,10.96875 C 27.758128,10.055189 27.32335,9.1670995 26.625,8.46875 C 25.435125,7.2788767 23.750955,7.0575137 22.5,7.75 C 21.681801,8.2029272 21.147628,9.0569873 20.8125,10.03125 C 21.038745,9.1811734 21.188875,8.6227717 21.1875,8.03125 C 21.186125,7.4397283 20.996331,6.8826028 20.75,6.40625 C 20.199537,5.3417721 19.213766,4.665183 18.1875,4.5 z "
         id="path5335"
         style="fill:#ffffff;fill-opacity:1;stroke:none;stroke-width:0.9997496;stroke-miterlimit:4;stroke-dasharray:none;stroke-opacity:1;opacity:0.4"
         inkscape:original="M 18.03125 5.5 C 17.31018 5.3839399 16.549038 5.6167742 15.875 6.25 C 14.763931 7.2937954 14.839223 8.3912348 16.1875 10.84375 C 17.146081 12.587408 17.237715 12.994051 16.84375 13.46875 C 16.014408 14.468044 15.44647 14.077263 14.125 11.5625 C 13.181189 9.7664256 12.5656 9.0016382 11.84375 8.75 C 10.617333 8.3224685 9.4070722 8.8429926 8.6875 10.125 C 7.8318632 11.649421 8.7166526 12.927466 11.4375 14.0625 C 13.783302 15.041079 14.375648 15.558947 14.0625 16.375 C 13.805494 17.044746 12.628246 16.980165 10.8125 16.15625 C 8.7074223 15.201047 7.0510692 15.208912 6.34375 16.21875 C 5.5690344 17.324811 5.6523688 18.62496 6.5625 19.59375 C 7.5065093 20.598603 8.1519201 20.609571 11.09375 19.6875 C 13.161665 19.039345 13.439857 19.033606 13.9375 19.53125 C 14.823768 20.417518 13.993304 21.271983 11.96875 21.5625 C 9.1117482 21.972469 8.079029 24.172778 9.875 25.96875 C 11.173262 27.267011 12.364604 27.088733 13.875 25.40625 C 15.245864 23.879197 16.973814 23.176013 18.59375 23.5 C 19.997255 23.780702 21.847488 23.084214 23.0625 21.8125 C 24.040345 20.789021 24.106801 20.586318 24.03125 18.0625 C 23.94467 15.170325 24.305941 14.108587 25.875 12.65625 C 27.01807 11.598211 27.029138 10.310388 25.90625 9.1875 C 24.039915 7.3211675 21.4375 8.7667746 21.4375 11.65625 C 21.4375 13.345739 20.827584 14.178041 19.875 13.8125 C 19.159263 13.537847 19.169278 12.315462 19.84375 9.78125 C 20.28489 8.1237402 20.277179 7.71316 19.84375 6.875 C 19.425371 6.065944 18.75232 5.6160601 18.03125 5.5 z "
         inkscape:radius="1.004271"
         sodipodi:type="inkscape:offset" />
      <path
         id="path4253"
         d="M 19.15625 1 C 18.218785 1.0035087 17.265055 1.1211359 16.3125 1.375 C 16.292433 1.3868827 16.271547 1.3973256 16.25 1.40625 C 10.671734 2.2931732 5.6037805 6.5512808 3 11.78125 C 0.40255947 16.998485 0.25746169 23.066474 4.40625 27.71875 C 4.412617 27.724533 4.4311279 27.712983 4.4375 27.71875 C 4.4432276 27.725154 4.4317561 27.743601 4.4375 27.75 C 9.3848158 32.214813 15.842234 31.724464 21.1875 28.59375 C 26.544963 25.455892 30.649971 19.66544 30.71875 13.6875 C 30.717427 13.666688 30.717427 13.645812 30.71875 13.625 C 31.703757 6.7243231 25.746459 0.97533433 19.15625 1 z M 19.15625 2.03125 C 25.132326 2.0088829 30.577308 7.2350084 29.6875 13.46875 C 29.683703 13.531192 29.683703 13.593808 29.6875 13.65625 C 29.624133 19.163771 25.730341 24.715613 20.65625 27.6875 C 15.607444 30.644578 9.729618 31.096685 5.15625 27 C 1.3526909 22.702855 1.487387 17.171312 3.9375 12.25 C 6.4006532 7.3024955 11.275832 3.2581856 16.4375 2.4375 C 16.490086 2.4297784 16.542239 2.4193478 16.59375 2.40625 C 17.465333 2.1739657 18.315045 2.0343984 19.15625 2.03125 z "
         style="fill:#ffffff;fill-opacity:1;stroke:none;stroke-width:0.9997496;stroke-linejoin:round;stroke-miterlimit:4;stroke-dasharray:none;stroke-opacity:1;opacity:0.4" />
      <path
         mask="url(#mask5524)"
         sodipodi:nodetypes="ccssc"
         id="path3421"
         d="M -0.071764,15.490538 C 8.387759,18.970658 19.107794,13.483834 31.928236,10.814178 C 31.731988,6.7590647 26.872218,0.81857061 25.804378,0.5431138 C 25.135412,0.37054932 16.439598,-1.3395835 10.994919,0.03685529 C 5.1479129,1.5150042 1.1916159,9.8959404 -0.071764,15.490538 z "
         style="opacity:0.6;fill:url(#radialGradient5514);fill-opacity:1;fill-rule:evenodd;stroke:none;stroke-width:1;stroke-linecap:butt;stroke-linejoin:miter;stroke-miterlimit:4;stroke-dasharray:none;stroke-opacity:1;display:inline" />
      <path
         d="M 18.03125,5.5 C 17.31018,5.3839399 16.549038,5.6167742 15.875,6.25 C 14.763931,7.2937954 14.839223,8.3912348 16.1875,10.84375 C 17.146081,12.587408 17.237715,12.994051 16.84375,13.46875 C 16.014408,14.468044 15.44647,14.077263 14.125,11.5625 C 13.181189,9.7664256 12.5656,9.0016382 11.84375,8.75 C 10.617333,8.3224685 9.4070722,8.8429926 8.6875,10.125 C 7.8318632,11.649421 8.7166526,12.927466 11.4375,14.0625 C 13.783302,15.041079 14.375648,15.558947 14.0625,16.375 C 13.805494,17.044746 12.628246,16.980165 10.8125,16.15625 C 8.7074223,15.201047 7.0510692,15.208912 6.34375,16.21875 C 5.5690344,17.324811 5.6523688,18.62496 6.5625,19.59375 C 7.5065093,20.598603 8.1519201,20.609571 11.09375,19.6875 C 13.161665,19.039345 13.439857,19.033606 13.9375,19.53125 C 14.823768,20.417518 13.993304,21.271983 11.96875,21.5625 C 9.1117482,21.972469 8.079029,24.172778 9.875,25.96875 C 11.173262,27.267011 12.364604,27.088733 13.875,25.40625 C 15.245864,23.879197 16.973814,23.176013 18.59375,23.5 C 19.997255,23.780702 21.847488,23.084214 23.0625,21.8125 C 24.040345,20.789021 24.106801,20.586318 24.03125,18.0625 C 23.94467,15.170325 24.305941,14.108587 25.875,12.65625 C 27.01807,11.598211 27.029138,10.310388 25.90625,9.1875 C 24.039915,7.3211675 21.4375,8.7667746 21.4375,11.65625 C 21.4375,13.345739 20.827584,14.178041 19.875,13.8125 C 19.159263,13.537847 19.169278,12.315462 19.84375,9.78125 C 20.28489,8.1237402 20.277179,7.71316 19.84375,6.875 C 19.425371,6.065944 18.75232,5.6160601 18.03125,5.5 z "
         id="path4240"
         style="fill:#555753;fill-opacity:1;stroke:none;stroke-width:0.9997496;stroke-miterlimit:4;stroke-dasharray:none;stroke-opacity:1"
         inkscape:original="M 18.03125 5.5 C 17.31018 5.3839399 16.549038 5.6167742 15.875 6.25 C 14.763931 7.2937954 14.839223 8.3912348 16.1875 10.84375 C 17.146081 12.587408 17.237715 12.994051 16.84375 13.46875 C 16.014408 14.468044 15.44647 14.077263 14.125 11.5625 C 13.181189 9.7664256 12.5656 9.0016382 11.84375 8.75 C 10.617333 8.3224685 9.4070722 8.8429926 8.6875 10.125 C 7.8318632 11.649421 8.7166526 12.927466 11.4375 14.0625 C 13.783302 15.041079 14.375648 15.558947 14.0625 16.375 C 13.805494 17.044746 12.628246 16.980165 10.8125 16.15625 C 8.7074223 15.201047 7.0510692 15.208912 6.34375 16.21875 C 5.5690344 17.324811 5.6523688 18.62496 6.5625 19.59375 C 7.5065093 20.598603 8.1519201 20.609571 11.09375 19.6875 C 13.161665 19.039345 13.439857 19.033606 13.9375 19.53125 C 14.823768 20.417518 13.993304 21.271983 11.96875 21.5625 C 9.1117482 21.972469 8.079029 24.172778 9.875 25.96875 C 11.173262 27.267011 12.364604 27.088733 13.875 25.40625 C 15.245864 23.879197 16.973814 23.176013 18.59375 23.5 C 19.997255 23.780702 21.847488 23.084214 23.0625 21.8125 C 24.040345 20.789021 24.106801 20.586318 24.03125 18.0625 C 23.94467 15.170325 24.305941 14.108587 25.875 12.65625 C 27.01807 11.598211 27.029138 10.310388 25.90625 9.1875 C 24.039915 7.3211675 21.4375 8.7667746 21.4375 11.65625 C 21.4375 13.345739 20.827584 14.178041 19.875 13.8125 C 19.159263 13.537847 19.169278 12.315462 19.84375 9.78125 C 20.28489 8.1237402 20.277179 7.71316 19.84375 6.875 C 19.425371 6.065944 18.75232 5.6160601 18.03125 5.5 z "
         inkscape:radius="0"
         sodipodi:type="inkscape:offset" />
    </g>
  </g>
</svg>
