<?xml version="1.0" encoding="UTF-8" standalone="no"?>
<!-- Created with Inkscape (http://www.inkscape.org/) -->
<svg
   xmlns:dc="http://purl.org/dc/elements/1.1/"
   xmlns:cc="http://web.resource.org/cc/"
   xmlns:rdf="http://www.w3.org/1999/02/22-rdf-syntax-ns#"
   xmlns:svg="http://www.w3.org/2000/svg"
   xmlns="http://www.w3.org/2000/svg"
   xmlns:xlink="http://www.w3.org/1999/xlink"
   xmlns:sodipodi="http://sodipodi.sourceforge.net/DTD/sodipodi-0.dtd"
   xmlns:inkscape="http://www.inkscape.org/namespaces/inkscape"
   width="32"
   height="32"
   id="svg2"
   sodipodi:version="0.32"
   inkscape:version="0.45+devel"
   version="1.0"
   sodipodi:docbase="/home/lapo/Icone/cvs/gnome-icon-theme/scalable/actions"
   sodipodi:docname="object-rotate-left.svg"
   inkscape:output_extension="org.inkscape.output.svg.inkscape"
   inkscape:export-filename="/home/klepas/Documents/work/Got_It/svn/Graphics/rotateleft_normal_hover.png"
   inkscape:export-xdpi="90"
   inkscape:export-ydpi="90">
  <defs
     id="defs4">
    <linearGradient
       inkscape:collect="always"
       id="linearGradient3263">
      <stop
         style="stop-color:white;stop-opacity:1;"
         offset="0"
         id="stop3265" />
      <stop
         style="stop-color:white;stop-opacity:0;"
         offset="1"
         id="stop3267" />
    </linearGradient>
    <linearGradient
       id="linearGradient3252">
      <stop
         id="stop3254"
         offset="0"
         style="stop-color:#fcaf3e;stop-opacity:1" />
      <stop
         style="stop-color:#ffcf82;stop-opacity:1;"
         offset="0.24886067"
         id="stop3258" />
      <stop
         id="stop3260"
         offset="0.60878158"
         style="stop-color:#fcaf3e;stop-opacity:1;" />
      <stop
         id="stop3256"
         offset="1"
         style="stop-color:white;stop-opacity:1;" />
    </linearGradient>
    <linearGradient
       inkscape:collect="always"
       id="linearGradient3209">
      <stop
         style="stop-color:black;stop-opacity:1;"
         offset="0"
         id="stop3211" />
      <stop
         style="stop-color:black;stop-opacity:0;"
         offset="1"
         id="stop3213" />
    </linearGradient>
    <linearGradient
       inkscape:collect="always"
       xlink:href="#linearGradient3263"
       id="linearGradient5023"
       gradientUnits="userSpaceOnUse"
       gradientTransform="matrix(-0.5790108,0,0,0.6414254,28.081423,1.50223)"
       x1="21.125"
       y1="27.875"
       x2="21.125"
       y2="46.895153" />
    <linearGradient
       inkscape:collect="always"
       xlink:href="#linearGradient3263"
       id="linearGradient5026"
       gradientUnits="userSpaceOnUse"
       gradientTransform="matrix(-0.6428572,0,0,0.6959414,29.75,6.4205e-2)"
       x1="21.875"
       y1="8.75"
       x2="10.875"
       y2="22.125" />
    <linearGradient
       inkscape:collect="always"
       xlink:href="#linearGradient3252"
       id="linearGradient5029"
       gradientUnits="userSpaceOnUse"
       gradientTransform="matrix(-1.5168219,0,0,1.4464571,40.357904,1.7620237)"
       x1="25.956575"
       y1="5.2073736"
       x2="21.789337"
       y2="21.515211" />
    <radialGradient
       inkscape:collect="always"
       xlink:href="#linearGradient3209"
       id="radialGradient5032"
       gradientUnits="userSpaceOnUse"
       gradientTransform="matrix(1,0,0,0.537849,0,7.842131)"
       cx="12.15625"
       cy="16.96875"
       fx="12.15625"
       fy="16.96875"
       r="7.84375" />
    <clipPath
       clipPathUnits="userSpaceOnUse"
       id="clipPath5620">
      <path
         clip-path="none"
         sodipodi:nodetypes="cccccccccccc"
         id="path5622"
         d="M 23.107843,2.4999998 C 15.140842,2.4999998 9.3823529,8.6284555 9.3823529,16.225873 L 9.3823529,18.186713 L 3.5,18.186713 L 14.284314,29.951747 L 24.088235,18.186713 L 18.205882,18.186713 L 18.205882,16.225873 C 18.205882,13.286361 20.025337,11.323776 23.107843,11.323776 L 29.970588,11.323776 L 29.970588,2.4999998 L 23.107843,2.4999998 z"
         style="color:#000000;fill:#000000;fill-opacity:1;fill-rule:nonzero;stroke:none;stroke-width:0.98040587;stroke-linecap:round;stroke-linejoin:miter;marker:none;marker-start:none;marker-mid:none;marker-end:none;stroke-miterlimit:4;stroke-dasharray:none;stroke-dashoffset:1.4;stroke-opacity:1;visibility:visible;display:inline;overflow:visible" />
    </clipPath>
    <clipPath
       clipPathUnits="userSpaceOnUse"
       id="clipPath5640">
      <path
         style="opacity:0.66666667;color:#000000;fill:#000000;fill-opacity:1;fill-rule:nonzero;stroke:none;stroke-width:1;stroke-linecap:round;stroke-linejoin:miter;marker:none;marker-start:none;marker-mid:none;marker-end:none;stroke-miterlimit:4;stroke-dashoffset:1.4;stroke-opacity:1;visibility:visible;display:inline;overflow:visible"
         d="M 22,2 C 14.386485,2 9.0000002,7.7561463 9,15 L 9,17 L 9,18 L 16,18 L 16,17 L 16,15 C 16.000001,13.294572 16.561254,11.77389 17.625,10.6875 C 18.688747,9.60111 20.215691,9.0000002 22,9 L 23,9 L 28,9 L 28,2 L 22,2 z"
         id="path5642" />
    </clipPath>
    <clipPath
       clipPathUnits="userSpaceOnUse"
       id="clipPath5654">
      <path
         style="opacity:0.59895833;color:#000000;fill:#000000;fill-opacity:1;fill-rule:nonzero;stroke:none;stroke-width:1;stroke-linecap:round;stroke-linejoin:miter;marker:none;marker-start:none;marker-mid:none;marker-end:none;stroke-miterlimit:4;stroke-dashoffset:1.4;stroke-opacity:1;visibility:visible;display:inline;overflow:visible"
         d="M 9,18 L 4.2872621,18 L 12.977903,27.486136 L 20.867417,18 L 17,18 L 9,18 z"
         id="path5656"
         sodipodi:nodetypes="cccccc" />
    </clipPath>
    <linearGradient
       inkscape:collect="always"
       xlink:href="#linearGradient3263"
       id="linearGradient6069"
       gradientUnits="userSpaceOnUse"
       gradientTransform="matrix(-0.6428572,0,0,0.6959414,29.75,6.4205e-2)"
       x1="21.875"
       y1="8.75"
       x2="10.875"
       y2="22.125" />
  </defs>
  <sodipodi:namedview
     id="base"
     pagecolor="#ffffff"
     bordercolor="#afafaf"
     borderopacity="1"
     inkscape:pageopacity="0.0"
     inkscape:pageshadow="2"
     inkscape:zoom="16"
     inkscape:cx="17.736001"
     inkscape:cy="13.455312"
     inkscape:document-units="px"
     inkscape:current-layer="layer1"
     width="32px"
     height="32px"
     gridspacingx="0.5px"
     gridspacingy="0.5px"
     inkscape:showpageshadow="false"
     borderlayer="true"
     gridempspacing="2"
     inkscape:window-width="960"
     inkscape:window-height="666"
     inkscape:window-x="352"
     inkscape:window-y="163"
     showgrid="false"
     showguides="true"
     showborder="true"
     inkscape:guide-bbox="true"
     inkscape:grid-points="true"
     inkscape:snap-bbox="true"
     gridtolerance="10000">
    <inkscape:grid
       type="xygrid"
       id="grid5020" />
  </sodipodi:namedview>
  <metadata
     id="metadata7">
    <rdf:RDF>
      <cc:Work
         rdf:about="">
        <dc:format>image/svg+xml</dc:format>
        <dc:type
           rdf:resource="http://purl.org/dc/dcmitype/StillImage" />
        <dc:creator>
          <cc:Agent>
            <dc:title>Simon Pascal Klein</dc:title>
          </cc:Agent>
        </dc:creator>
        <cc:license
           rdf:resource="http://creativecommons.org/licenses/by-sa/3.0/" />
        <dc:title>Rotate Left</dc:title>
        <dc:date>2007-08-13</dc:date>
        <dc:subject>
          <rdf:Bag>
            <rdf:li>object</rdf:li>
            <rdf:li>rotate</rdf:li>
          </rdf:Bag>
        </dc:subject>
        <dc:contributor>
          <cc:Agent>
            <dc:title>Lapo Calamandrei</dc:title>
          </cc:Agent>
        </dc:contributor>
      </cc:Work>
      <cc:License
         rdf:about="http://creativecommons.org/licenses/by-sa/3.0/">
        <cc:permits
           rdf:resource="http://web.resource.org/cc/Reproduction" />
        <cc:permits
           rdf:resource="http://web.resource.org/cc/Distribution" />
        <cc:requires
           rdf:resource="http://web.resource.org/cc/Notice" />
        <cc:requires
           rdf:resource="http://web.resource.org/cc/Attribution" />
        <cc:permits
           rdf:resource="http://web.resource.org/cc/DerivativeWorks" />
        <cc:requires
           rdf:resource="http://web.resource.org/cc/ShareAlike" />
      </cc:License>
    </rdf:RDF>
  </metadata>
  <g
     inkscape:label="Livello 1"
     inkscape:groupmode="layer"
     id="layer1"
     style="display:inline">
    <path
       sodipodi:type="arc"
       style="opacity:0.15;color:#000000;fill:url(#radialGradient5032);fill-opacity:1;fill-rule:nonzero;stroke:none;stroke-width:1;stroke-linecap:round;stroke-linejoin:miter;marker:none;marker-start:none;marker-mid:none;marker-end:none;stroke-miterlimit:4;stroke-dasharray:none;stroke-dashoffset:1.4;stroke-opacity:1;visibility:visible;display:inline;overflow:visible"
       id="path3275"
       sodipodi:cx="12.15625"
       sodipodi:cy="16.96875"
       sodipodi:rx="7.84375"
       sodipodi:ry="4.21875"
       d="M 20,16.96875 A 7.84375,4.21875 0 1 1 4.3125,16.96875 A 7.84375,4.21875 0 1 1 20,16.96875 z"
       transform="matrix(-1.6573705,0,0,1.1851852,33.14741,6.8888885)"
       inkscape:export-filename="/home/lapo/Desktop/rotate.png"
       inkscape:export-xdpi="90"
       inkscape:export-ydpi="90" />
    <path
       style="color:#000000;fill:url(#linearGradient5029);fill-opacity:1;fill-rule:nonzero;stroke:#ce5c00;stroke-width:1.96081171;stroke-linecap:round;stroke-linejoin:miter;marker:none;marker-start:none;marker-mid:none;marker-end:none;stroke-miterlimit:4;stroke-dasharray:none;stroke-dashoffset:1.39999999999999991;stroke-opacity:1;visibility:visible;display:inline;overflow:visible"
       d="M 23.107843,2.4999998 C 15.140842,2.4999998 9.3823529,8.6284555 9.3823529,16.225873 L 9.3823529,18.186713 L 3.5,18.186713 L 14.284314,29.951747 L 24.088235,18.186713 L 18.205882,18.186713 L 18.205882,16.225873 C 18.205882,13.286361 20.025337,11.323776 23.107843,11.323776 L 29.970588,11.323776 L 29.970588,2.4999998 L 23.107843,2.4999998 z"
       id="path3277"
       sodipodi:nodetypes="cccccccccccc"
       clip-path="url(#clipPath5620)"
       transform="matrix(1.02,0,0,1.0199715,-1.57,-1.5499285)" />
    <path
       style="color:#000000;fill:url(#linearGradient6069);fill-opacity:1;fill-rule:nonzero;stroke:none;stroke-width:2;stroke-linecap:round;stroke-linejoin:miter;marker:none;stroke-miterlimit:4;stroke-dashoffset:1.39999999999999991;stroke-opacity:1;visibility:visible;display:inline;overflow:visible"
       clip-path="url(#clipPath5640)"
       d="M 22 1 C 18.833333 1 15.300038 1.8055888 12.5625 4.40625 C 9.8249619 7.0069112 8 11.320513 8 18 C 7.9948997 18.360636 8.1885025 18.693193 8.5 18.875 C 8.8114979 19.056806 9.1885024 19.056806 9.5 18.875 C 9.8114972 18.693193 10.0051 18.360636 10 18 L 10 17.0625 L 10 15.15625 C 10 12.348276 10.869102 9.8020168 12.375 7.75 C 12.40882 7.696863 12.434392 7.6457463 12.46875 7.59375 C 12.517945 7.5288743 12.574492 7.470052 12.625 7.40625 C 13.03552 6.8151259 13.466154 6.2915289 13.9375 5.84375 C 15.326161 4.5245216 16.993152 3.7738533 18.71875 3.375 C 18.750233 3.366113 18.78089 3.3524071 18.8125 3.34375 C 18.875721 3.3264358 18.936273 3.297639 19 3.28125 L 19 3.3125 C 19.996502 3.106015 20.999895 3 22 3 L 27 3 L 27 8 L 22 8 C 19.78122 8 17.962429 8.7189077 16.78125 9.9375 C 15.629792 11.125434 15 12.883112 15 16 L 15 18 C 14.9949 18.360636 15.188502 18.693193 15.5 18.875 C 15.811497 19.056806 16.188503 19.056806 16.5 18.875 C 16.811497 18.693193 17.0051 18.360636 17 18 L 17 16 C 17 13.116888 17.422585 12.132895 18.1875 11.34375 C 18.922691 10.585273 20.21878 10 22 10 L 28 10 L 29 10 L 29 9 L 29 2 L 29 1 L 28 1 L 22 1 z "
       id="path3279" />
    <path
       style="color:#000000;fill:none;fill-opacity:1;fill-rule:nonzero;stroke:url(#linearGradient5023);stroke-width:2;stroke-linecap:round;stroke-linejoin:miter;marker:none;marker-start:none;marker-mid:none;marker-end:none;stroke-miterlimit:4;stroke-dashoffset:1.39999999999999991;stroke-opacity:1;visibility:visible;display:inline;overflow:visible;stroke-dasharray:none"
       d="M 16,18 L 21,18 L 12.971986,27.476563 L 4.296875,18 L 9,18"
       id="path3281"
       sodipodi:nodetypes="ccccc"
       clip-path="url(#clipPath5654)" />
  </g>
</svg>
