<?xml version="1.0" encoding="UTF-8" standalone="no"?>
<!-- Created with Inkscape (http://www.inkscape.org/) -->
<svg
   xmlns:dc="http://purl.org/dc/elements/1.1/"
   xmlns:cc="http://web.resource.org/cc/"
   xmlns:rdf="http://www.w3.org/1999/02/22-rdf-syntax-ns#"
   xmlns:svg="http://www.w3.org/2000/svg"
   xmlns="http://www.w3.org/2000/svg"
   xmlns:xlink="http://www.w3.org/1999/xlink"
   xmlns:sodipodi="http://sodipodi.sourceforge.net/DTD/sodipodi-0.dtd"
   xmlns:inkscape="http://www.inkscape.org/namespaces/inkscape"
   width="32"
   height="32"
   id="svg1306"
   sodipodi:version="0.32"
   inkscape:version="0.45+devel"
   sodipodi:docbase="/home/tobias/Desktop"
   sodipodi:docname="watermark.svg"
   inkscape:export-filename="/home/klepas/Documents/work/Got_It/svn/watermark.png"
   inkscape:export-xdpi="90.000031"
   inkscape:export-ydpi="90.000031"
   version="1.0"
   inkscape:output_extension="org.inkscape.output.svg.inkscape">
  <defs
     id="defs1308">
    <linearGradient
       inkscape:collect="always"
       id="linearGradient4616">
      <stop
         style="stop-color:#2e3436;stop-opacity:1;"
         offset="0"
         id="stop4618" />
      <stop
         style="stop-color:#2e3436;stop-opacity:0;"
         offset="1"
         id="stop4620" />
    </linearGradient>
    <linearGradient
       id="linearGradient4928">
      <stop
         id="stop4930"
         offset="0"
         style="stop-color:#fce94f;stop-opacity:1;" />
      <stop
         id="stop4932"
         offset="1"
         style="stop-color:#fce94f;stop-opacity:0;" />
    </linearGradient>
    <linearGradient
       inkscape:collect="always"
       id="linearGradient2065">
      <stop
         style="stop-color:#555753"
         offset="0"
         id="stop2067" />
      <stop
         style="stop-color:#fcaf3e"
         offset="1"
         id="stop2069" />
    </linearGradient>
    <linearGradient
       inkscape:collect="always"
       xlink:href="#linearGradient4616"
       id="linearGradient2203"
       gradientUnits="userSpaceOnUse"
       gradientTransform="matrix(0.9096762,0,0,1.4294912,-4.3677335,-23.17321)"
       x1="25.685051"
       y1="34.36412"
       x2="25.685051"
       y2="31.56735" />
    <linearGradient
       inkscape:collect="always"
       xlink:href="#linearGradient2065"
       id="linearGradient2209"
       gradientUnits="userSpaceOnUse"
       gradientTransform="matrix(0.8701251,0,0,0.8701251,26.451299,0.3279513)"
       x1="-11.986486"
       y1="13.122552"
       x2="-11.986486"
       y2="29.726542" />
    <clipPath
       clipPathUnits="userSpaceOnUse"
       id="clipPath3226">
      <rect
         ry="1"
         rx="1"
         y="2"
         x="2"
         height="28"
         width="28"
         id="rect3228"
         style="fill:url(#linearGradient3230);fill-opacity:1;stroke:none;stroke-width:1;stroke-linecap:round;stroke-linejoin:round;stroke-miterlimit:4;stroke-dasharray:none;stroke-dashoffset:0;stroke-opacity:1" />
    </clipPath>
    <linearGradient
       inkscape:collect="always"
       xlink:href="#linearGradient2065"
       id="linearGradient3230"
       gradientUnits="userSpaceOnUse"
       gradientTransform="matrix(0.8701251,0,0,0.8701251,26.451299,0.3279513)"
       x1="-11.986486"
       y1="13.122552"
       x2="-11.986486"
       y2="29.726542" />
    <radialGradient
       inkscape:collect="always"
       xlink:href="#linearGradient4928"
       id="radialGradient3242"
       gradientUnits="userSpaceOnUse"
       gradientTransform="matrix(0.8075709,-1.2740102e-8,1.1512206e-8,0.8211474,15.851087,-1.9640438)"
       cx="-6.0070167"
       cy="32.837029"
       fx="-6.0070167"
       fy="32.837029"
       r="9.90625" />
  </defs>
  <sodipodi:namedview
     id="base"
     pagecolor="#ffffff"
     bordercolor="#666"
     borderopacity="1"
     inkscape:pageopacity="0.0"
     inkscape:pageshadow="2"
     inkscape:zoom="1"
     inkscape:cx="30.635589"
     inkscape:cy="28.753484"
     inkscape:current-layer="layer1"
     showgrid="true"
     inkscape:grid-bbox="true"
     inkscape:document-units="px"
     fill="#fcaf3e"
     stroke="#555753"
     showguides="true"
     inkscape:guide-bbox="true"
     inkscape:window-width="1085"
     inkscape:window-height="760"
     inkscape:window-x="304"
     inkscape:window-y="98"
     inkscape:showpageshadow="false"
     showborder="true"
     gridspacingx="0.5px"
     gridspacingy="0.5px"
     gridempspacing="2"
     inkscape:grid-points="true"
     width="32px"
     height="32px"
     inkscape:snap-nodes="true"
     gridtolerance="10000"
     inkscape:snap-bbox="true"
     objecttolerance="10000">
    <inkscape:grid
       type="xygrid"
       id="grid5018" />
  </sodipodi:namedview>
  <metadata
     id="metadata1311">
    <rdf:RDF>
      <cc:Work
         rdf:about="">
        <dc:format>image/svg+xml</dc:format>
        <dc:type
           rdf:resource="http://purl.org/dc/dcmitype/StillImage" />
        <dc:title>Insert Image</dc:title>
        <dc:creator>
          <cc:Agent>
            <dc:title>Lapo Calamandrei</dc:title>
          </cc:Agent>
        </dc:creator>
        <dc:source>http://www.gnome.org</dc:source>
        <dc:contributor>
          <cc:Agent>
            <dc:title />
          </cc:Agent>
        </dc:contributor>
        <cc:license
           rdf:resource="http://creativecommons.org/licenses/GPL/2.0/" />
        <dc:subject>
          <rdf:Bag>
            <rdf:li>insert</rdf:li>
            <rdf:li>imag</rdf:li>
            <rdf:li>generic</rdf:li>
          </rdf:Bag>
        </dc:subject>
      </cc:Work>
      <cc:License
         rdf:about="http://creativecommons.org/licenses/GPL/2.0/">
        <cc:permits
           rdf:resource="http://web.resource.org/cc/Reproduction" />
        <cc:permits
           rdf:resource="http://web.resource.org/cc/Distribution" />
        <cc:requires
           rdf:resource="http://web.resource.org/cc/Notice" />
        <cc:permits
           rdf:resource="http://web.resource.org/cc/DerivativeWorks" />
        <cc:requires
           rdf:resource="http://web.resource.org/cc/ShareAlike" />
        <cc:requires
           rdf:resource="http://web.resource.org/cc/SourceCode" />
      </cc:License>
    </rdf:RDF>
  </metadata>
  <g
     id="layer1"
     inkscape:label="Layer 1"
     inkscape:groupmode="layer">
    <rect
       style="fill:#888a85;fill-opacity:1;stroke:#888a85;stroke-width:1;stroke-linecap:round;stroke-linejoin:round;stroke-miterlimit:4;stroke-dasharray:none;stroke-dashoffset:0;stroke-opacity:1"
       id="rect2227"
       width="29.000084"
       height="29.000084"
       x="1.5"
       y="1.5"
       rx="1.4998566"
       ry="1.4998566" />
    <rect
       style="fill:url(#linearGradient2209);fill-opacity:1;stroke:none;stroke-width:1;stroke-linecap:round;stroke-linejoin:round;stroke-miterlimit:4;stroke-dasharray:none;stroke-dashoffset:0;stroke-opacity:1"
       id="rect2229"
       width="28"
       height="28"
       x="2"
       y="2"
       rx="1"
       ry="1" />
    <rect
       style="fill:url(#linearGradient2203);fill-opacity:1;stroke:none;stroke-width:1;stroke-linecap:round;stroke-linejoin:round;stroke-miterlimit:4;stroke-dasharray:none;stroke-dashoffset:0;stroke-opacity:1"
       id="rect2233"
       width="28"
       height="6"
       x="2"
       y="24"
       rx="0"
       ry="0"
       clip-path="url(#clipPath3226)"
       transform="matrix(1,0,0,0.8333333,0,5.0000006)" />
    <rect
       style="opacity:1;fill:none;fill-opacity:1;stroke:#ffffff;stroke-width:1;stroke-linecap:round;stroke-linejoin:round;stroke-miterlimit:4;stroke-dasharray:none;stroke-dashoffset:0;stroke-opacity:1"
       id="rect2241"
       width="27"
       height="27"
       x="2.5"
       y="2.5"
       rx="0.50390625"
       ry="0.50390625" />
    <path
       style="fill:#000000;fill-opacity:1;fill-rule:evenodd;stroke:none;stroke-width:1px;stroke-linecap:butt;stroke-linejoin:miter;stroke-opacity:1"
       d="M 19.205351,26.769981 C 19.205351,26.769981 18.737525,24.173663 18.737525,22.583113 C 18.750501,21.857526 25.294269,16.204966 25.311152,15.362994 L 23.789785,16.688811 L 22.724461,13.790547 L 26.315913,14.162681 L 28,12.478595 L 26.092633,13.87884 L 25.436658,13.729986 L 24.631828,10.794509 L 25.041175,13.655559 L 22.068484,13.506705 L 22.99882,15.874497 L 20.421612,13.320639 L 23.147673,16.875292 C 23.147744,17.6681 17.774702,22.50789 17.783842,21.673367 L 15.55542,18.68447 L 15.369353,14.64385 L 17.053439,14.162681 L 18.528829,10.524532 L 16.583945,13.887076 L 15.0656,13.818277 L 11.666787,10.947745 L 7,9.1615009 L 10.986935,11.35271 L 7.7909647,11.636551 L 12.00118,11.636551 L 14.527309,14.162681 L 14.825017,18.526133 L 10.317093,14.162681 L 12.212786,16.442182 L 9.4750505,18.372897 L 12.482348,16.688811 L 17.239505,22.680888 L 17.053439,26.769981 L 19.205351,26.769981 z"
       id="path2235"
       sodipodi:nodetypes="cccccccccccccccccccccccccccccccccccc" />
    <path
       style="color:#000000;fill:url(#radialGradient3242);fill-opacity:1;fill-rule:evenodd;stroke:none;stroke-width:1;stroke-linecap:round;stroke-linejoin:round;marker:none;marker-start:none;marker-mid:none;marker-end:none;stroke-miterlimit:4;stroke-dasharray:none;stroke-dashoffset:0;stroke-opacity:1;visibility:visible;display:inline;overflow:visible"
       d="M 10.495268,16.005075 C 6.321113,16.286022 3.0000002,19.992986 3.0000002,24.491359 C 3.0000002,24.665076 3.0155137,24.828861 3.0252367,25 L 18.974763,25 C 18.984487,24.828861 19,24.665076 19,24.491359 C 19,19.810124 15.412989,16.005075 11,16.005075 C 10.827618,16.005075 10.66495,15.993656 10.495268,16.005075 z"
       id="path2231"
       inkscape:r_cx="true"
       inkscape:r_cy="true" />
    <g
       id="g5599"
       transform="matrix(1.0308434,0,0,0.9720033,-0.1850613,0.6999185)">
      <path
         style="color:#000000;fill:#fef39e;fill-opacity:1;fill-rule:evenodd;stroke:none;stroke-width:1;stroke-linecap:round;stroke-linejoin:round;marker:none;marker-start:none;marker-mid:none;marker-end:none;stroke-miterlimit:4;stroke-dasharray:none;stroke-dashoffset:0;stroke-opacity:1;visibility:visible;display:inline;overflow:visible"
         d="M 10.089977,20.372997 C 7.8122661,20.517516 6.0000357,22.424384 6.0000357,24.738355 C 6.0000357,24.827715 6.0085005,24.911966 6.0138061,25 L 14.716981,25 C 14.722286,24.911966 14.730751,24.827715 14.730751,24.738355 C 14.730751,22.33032 12.773428,20.372997 10.365393,20.372997 C 10.271329,20.372997 10.182567,20.367122 10.089977,20.372997 z"
         id="path2237"
         inkscape:r_cx="true"
         inkscape:r_cy="true" />
      <path
         inkscape:r_cy="true"
         inkscape:r_cx="true"
         id="path2239"
         d="M 10.151439,21.471208 C 8.4143403,21.581427 7.0322403,23.035703 7.0322403,24.800455 C 7.0322403,24.868606 7.0386966,24.932861 7.0427425,25 L 13.680231,25 C 13.684277,24.932861 13.690734,24.868606 13.690734,24.800455 C 13.690734,22.963965 12.197978,21.471208 10.361486,21.471208 C 10.289749,21.471208 10.222053,21.466728 10.151439,21.471208 z"
         style="color:#000000;fill:#fffbd7;fill-opacity:0.55681817;fill-rule:evenodd;stroke:none;stroke-width:1;stroke-linecap:round;stroke-linejoin:round;marker:none;marker-start:none;marker-mid:none;marker-end:none;stroke-miterlimit:4;stroke-dasharray:none;stroke-dashoffset:0;stroke-opacity:1;visibility:visible;display:inline;overflow:visible" />
    </g>
    <path
       style="opacity:0.6;fill:#ffffff;fill-opacity:1;stroke:none;stroke-width:1;stroke-linejoin:miter;stroke-miterlimit:4;stroke-dasharray:none;stroke-dashoffset:0;stroke-opacity:1"
       d="M 6.9999995,5 C 5.8919996,5 4.9999996,5.8920001 4.9999996,7 L 4.9999996,17 C 4.9999996,18.108 5.8919996,19 6.9999995,19 L 17,19 C 18.107999,19 19,18.108 19,17 L 19,7 C 19,5.8920001 18.107999,5 17,5 L 6.9999995,5 z M 8.4999995,6.0625001 L 11.9375,6.0625001 C 14.265912,6.057268 15.448708,6.042071 15.53125,6.0625001 C 15.688244,6.1013571 15.817886,6.223165 15.90625,6.3750001 C 15.974412,6.492124 15.990941,6.539084 15.999999,7.6875 C 16.009751,8.923464 16.010353,8.9753579 15.875,9.0625001 C 15.773383,9.127922 13.320685,9.1281269 13.21875,9.0625001 C 13.087345,8.9779 13.080756,8.917438 13.0625,8.3437501 C 13.045647,7.814196 13.05295,7.783187 12.968749,7.625 C 12.868131,7.435965 12.711439,7.2767901 12.46875,7.1875001 C 12.318689,7.13229 12.213559,7.1349261 11.4375,7.125 C 10.714642,7.1157541 10.584795,7.1193421 10.53125,7.1562501 C 10.470078,7.198416 10.467975,7.209542 10.65625,7.3750001 C 10.971705,7.652225 10.934786,7.4276559 10.9375,10.562499 C 10.938788,12.051206 10.953214,13.351759 10.968749,13.4375 C 11.022438,13.733784 11.234851,13.979907 11.53125,14.125001 C 11.672167,14.193981 11.718166,14.187481 12,14.1875 C 12.274586,14.187519 12.335052,14.187763 12.46875,14.125001 C 12.553454,14.085236 12.681076,14.000852 12.749999,13.937501 C 13.025395,13.684364 13.082464,13.50255 13.0625,12.65625 C 13.054316,12.309282 13.020259,11.96492 13.000001,11.906251 C 12.941588,11.737093 12.82777,11.626905 12.624999,11.499999 C 12.477132,11.407455 12.441362,11.342877 12.40625,11.250001 C 12.343002,11.082705 12.386916,10.97955 12.5625,10.90625 C 12.682206,10.856276 12.800326,10.844343 14.218749,10.84375 C 15.903362,10.843046 15.900874,10.852279 15.968749,11.03125 C 16.018946,11.163604 16.019066,14.691324 15.968749,14.875 C 15.921523,15.047395 15.736685,15.237265 15.5625,15.281251 C 15.474188,15.30355 14.396638,15.312386 12,15.3125 L 8.5624995,15.3125 L 8.4062495,15.25 C 8.1998755,15.155472 8.0585245,14.962273 8.0312496,14.750001 C 8.0206225,14.66729 7.9948044,12.793126 7.9999995,10.562499 L 8.0312496,6.5 L 8.0937494,6.3750001 C 8.1506995,6.28595 8.2468695,6.208596 8.3437495,6.1562501 L 8.4999995,6.0625001 z M 11.71875,15.78125 C 11.791427,15.76978 11.881793,15.78125 12.031249,15.78125 C 12.328742,15.78125 12.374363,15.772863 12.531249,15.843751 C 13.235417,16.161922 13.482756,16.927387 13.0625,17.53125 C 12.77774,17.94042 12.133409,18.154283 11.625,18 C 11.380681,17.92586 11.248216,17.843028 11.0625,17.65625 C 10.837777,17.430243 10.782808,17.253889 10.781249,16.90625 C 10.780169,16.665308 10.769002,16.584127 10.843751,16.437499 C 10.963573,16.202453 11.256525,15.947128 11.5,15.843751 C 11.588417,15.806208 11.646074,15.792721 11.71875,15.78125 z"
       id="rect3183" />
  </g>
</svg>
